<?xml version="1.0" encoding="utf-8"?>
<!-- Generator: Adobe Illustrator 21.0.0, SVG Export Plug-In . SVG Version: 6.00 Build 0)  -->
<svg version="1.1" id="Layer_1" xmlns="http://www.w3.org/2000/svg" xmlns:xlink="http://www.w3.org/1999/xlink" x="0px" y="0px"
	 viewBox="0 0 28 22.1" style="enable-background:new 0 0 28 22.1;" xml:space="preserve">
<style type="text/css">
	.st0{fill:#333333;}
</style>
<g>
	<g transform="translate(-69.000000, -228.000000)">
		<g transform="translate(69.000000, 230.000000)">
			<path class="st0" d="M0-0.3c0-0.9,0.6-1.6,1.6-1.6h24.9c0.8,0,1.6,0.6,1.6,1.6s-0.6,1.6-1.6,1.6H1.6C0.6,1.2,0,0.6,0-0.3z M0,9
				c0-0.9,0.6-1.6,1.6-1.6h24.9C27.2,7.5,28,8.1,28,9c0,0.9-0.6,1.6-1.6,1.6H1.6C0.6,10.6,0,9.9,0,9z M0,18.3c0-0.9,0.6-1.6,1.6-1.6
				h24.9c0.8,0,1.6,0.6,1.6,1.6s-0.6,1.6-1.6,1.6H1.6C0.6,19.9,0,19.3,0,18.3z"/>
		</g>
	</g>
</g>
</svg>
