<?xml version="1.0" encoding="utf-8"?>
<!-- Generator: Adobe Illustrator 21.0.0, SVG Export Plug-In . SVG Version: 6.00 Build 0)  -->
<svg version="1.1" id="Isolation_Mode" xmlns="http://www.w3.org/2000/svg" xmlns:xlink="http://www.w3.org/1999/xlink" x="0px"
	 y="0px" viewBox="0 0 20 20.1" style="enable-background:new 0 0 20 20.1;" xml:space="preserve">
<style type="text/css">
	.st0{fill:#333333;}
</style>
<g>
	<g transform="translate(-69.000000, -228.000000)">
		<g transform="translate(69.000000, 230.000000)">
			<path class="st0" d="M0.4-1.4C1-2,2-2,2.6-1.4l17,17c0.6,0.6,0.6,1.5,0,2.1c-0.6,0.6-1.5,0.6-2.1,0l-17-17
				C-0.1,0.1-0.1-0.8,0.4-1.4z"/>
		</g>
	</g>
</g>
<g>
	<g transform="translate(-69.000000, -228.000000)">
		<g transform="translate(69.000000, 230.000000)">
			<path class="st0" d="M19.6-1.4c0.6,0.6,0.6,1.5,0,2.1l-17,17c-0.6,0.6-1.5,0.6-2.1,0c-0.6-0.6-0.6-1.5,0-2.1l17-17
				C18-2,19-2,19.6-1.4z"/>
		</g>
	</g>
</g>
</svg>
