<?xml version="1.0" encoding="utf-8"?>
<!-- Generator: Adobe Illustrator 21.0.0, SVG Export Plug-In . SVG Version: 6.00 Build 0)  -->
<svg version="1.1" id="Layer_1" xmlns="http://www.w3.org/2000/svg" xmlns:xlink="http://www.w3.org/1999/xlink" x="0px" y="0px"
	 viewBox="-49 141 512 512" style="enable-background:new -49 141 512 512;" xml:space="preserve">
<style type="text/css">
	.st0{fill:#333333;}
</style>
<path class="st0" d="M-28.3,653c-5.3,0-10.6-2-14.6-6.1c-8.1-8.1-8.1-21.2,0-29.2l470.6-470.6c8.1-8.1,21.2-8.1,29.2,0
	c8.1,8.1,8.1,21.2,0,29.2L-13.7,646.9C-17.7,651-23,653-28.3,653z"/>
<path class="st0" d="M442.3,653c-5.3,0-10.6-2-14.6-6.1L-42.9,176.3c-8.1-8.1-8.1-21.2,0-29.2c8.1-8.1,21.2-8.1,29.2,0l470.6,470.6
	c8.1,8.1,8.1,21.2,0,29.2C452.9,651,447.6,653,442.3,653z"/>
</svg>
