<svg xmlns="http://www.w3.org/2000/svg" xmlns:xlink="http://www.w3.org/1999/xlink" width="8" height="5" viewBox="0 0 8 5"><defs><path id="v10ma" d="M1144 47h7.97v4.94H1144z"/><path id="v10mc" d="M1151.82 47.16a.46.46 0 0 0-.35-.16h-6.97a.46.46 0 0 0-.35.16c-.1.11-.15.24-.15.39 0 .15.05.28.15.38l3.48 3.85a.46.46 0 0 0 .7 0l3.5-3.85c.09-.1.14-.23.14-.38a.56.56 0 0 0-.15-.39"/><clipPath id="v10mb"><use xlink:href="#v10ma"/></clipPath></defs><g><g transform="translate(-1144 -47)"><g/><g clip-path="url(#v10mb)"><use fill="#fff" xlink:href="#v10mc"/></g></g></g></svg>