<?xml version="1.0" encoding="UTF-8" standalone="no"?>
<svg width="16px" height="13px" viewBox="0 0 16 13" version="1.1" xmlns="http://www.w3.org/2000/svg" xmlns:xlink="http://www.w3.org/1999/xlink">
    <!-- Generator: Sketch 49.3 (51167) - http://www.bohemiancoding.com/sketch -->
    <title>Fill 1</title>
    <desc>Created with Sketch.</desc>
    <defs>
        <filter x="-87.5%" y="-100.0%" width="275.0%" height="380.0%" filterUnits="objectBoundingBox" id="filter-1">
            <feOffset dx="0" dy="2" in="SourceAlpha" result="shadowOffsetOuter1"></feOffset>
            <feGaussianBlur stdDeviation="2" in="shadowOffsetOuter1" result="shadowBlurOuter1"></feGaussianBlur>
            <feColorMatrix values="0 0 0 0 0   0 0 0 0 0   0 0 0 0 0  0 0 0 0.5 0" type="matrix" in="shadowBlurOuter1" result="shadowMatrixOuter1"></feColorMatrix>
            <feMerge>
                <feMergeNode in="shadowMatrixOuter1"></feMergeNode>
                <feMergeNode in="SourceGraphic"></feMergeNode>
            </feMerge>
        </filter>
    </defs>
    <g id="Desktop" stroke="none" stroke-width="1" fill="none" fill-rule="evenodd">
        <g id="10_Country_search_no-results" transform="translate(-1140.000000, -45.000000)" fill="#333333">
            <g id="Header" transform="translate(132.000000, 30.000000)">
                <g id="arrow_down" filter="url(#filter-1)" transform="translate(1012.000000, 17.000000)">
                    <path d="M7.82134925,0.162868421 C7.72296119,0.0544473684 7.60630448,-2.63157895e-05 7.4710209,-2.63157895e-05 L0.498125373,-2.63157895e-05 C0.363319403,-2.63157895e-05 0.246185075,0.0544473684 0.147797015,0.162868421 C0.0494089552,0.271815789 -2.3880597e-05,0.400368421 -2.3880597e-05,0.548921053 C-2.3880597e-05,0.697473684 0.0494089552,0.825894737 0.147797015,0.934842105 L3.63436418,4.77694737 C3.73322985,4.88536842 3.84976716,4.93984211 3.98457313,4.93984211 C4.1193791,4.93984211 4.23651343,4.88536842 4.33490149,4.77694737 L7.82134925,0.934842105 C7.91973731,0.825894737 7.96917015,0.697473684 7.96917015,0.548921053 C7.96917015,0.400368421 7.91973731,0.271815789 7.82134925,0.162868421" id="Fill-1"></path>
                </g>
            </g>
        </g>
    </g>
</svg>