<?xml version="1.0" encoding="utf-8"?>
<!-- Generator: Adobe Illustrator 21.0.0, SVG Export Plug-In . SVG Version: 6.00 Build 0)  -->
<svg version="1.1" id="Layer_3" xmlns="http://www.w3.org/2000/svg" xmlns:xlink="http://www.w3.org/1999/xlink" x="0px" y="0px"
	 viewBox="0 0 70 70" style="enable-background:new 0 0 70 70;" xml:space="preserve">
<style type="text/css">
	.st0{display:none;}
	.st1{display:inline;fill:#52493A;}
	.st2{display:inline;fill:#FFFFFF;}
	.st3{fill:#FBA735;}
	.st4{fill:#494135;}
	.st5{fill:#FFFFFF;}
</style>
<g class="st0">
	<ellipse class="st1" cx="400.9" cy="399.9" rx="220.2" ry="220.2"/>
	<path class="st2" d="M400.9,624.4c-3.5,0-7-0.1-10.5-0.2c-2.4-0.1-4.2-2.1-4.1-4.5c0.1-2.4,2.1-4.2,4.5-4.1
		c6.8,0.3,13.8,0.3,20.5,0c2.4-0.1,4.4,1.7,4.5,4.1c0.1,2.4-1.7,4.4-4.1,4.5C408.2,624.3,404.5,624.4,400.9,624.4z M369.7,622.2
		c-0.2,0-0.4,0-0.6,0c-7-1-14.1-2.3-21-4c-2.3-0.6-3.7-2.9-3.2-5.2c0.6-2.3,2.9-3.7,5.2-3.2c6.6,1.6,13.4,2.9,20.2,3.9
		c2.4,0.3,4,2.5,3.7,4.9C373.7,620.7,371.9,622.2,369.7,622.2z M432.4,622.2c-2.1,0-4-1.6-4.3-3.7c-0.3-2.4,1.3-4.5,3.7-4.9
		c6.8-1,13.5-2.3,20.2-3.9c2.3-0.6,4.7,0.9,5.2,3.2c0.6,2.3-0.9,4.7-3.2,5.2c-6.9,1.7-13.9,3-21,4
		C432.8,622.2,432.6,622.2,432.4,622.2z M329.1,612.4c-0.5,0-0.9-0.1-1.4-0.2c-6.7-2.3-13.4-5-19.8-7.9c-2.2-1-3.1-3.6-2.1-5.7
		c1-2.2,3.6-3.1,5.7-2.1c6.2,2.8,12.6,5.4,19.1,7.6c2.3,0.8,3.5,3.2,2.7,5.5C332.5,611.3,330.9,612.4,329.1,612.4z M473.1,612.3
		c-1.8,0-3.5-1.1-4.1-2.9c-0.8-2.3,0.4-4.7,2.7-5.5c6.4-2.2,12.8-4.8,19.1-7.6c2.2-1,4.7,0,5.7,2.1c1,2.2,0,4.7-2.1,5.7
		c-6.5,3-13.1,5.6-19.8,8C474,612.3,473.5,612.3,473.1,612.3z M291,595c-0.7,0-1.5-0.2-2.2-0.6c-6.1-3.5-12.2-7.4-18-11.6
		c-1.9-1.4-2.4-4.1-1-6c1.4-1.9,4.1-2.4,6-1c5.6,4,11.4,7.7,17.3,11.1c2.1,1.2,2.8,3.8,1.6,5.9C293.9,594.3,292.5,595,291,595z
		 M511.1,594.9c-1.5,0-2.9-0.8-3.7-2.2c-1.2-2.1-0.5-4.7,1.6-5.9c5.9-3.4,11.7-7.2,17.3-11.1c1.9-1.4,4.6-0.9,6,1
		c1.4,1.9,0.9,4.6-1,6c-5.8,4.1-11.8,8-18,11.6C512.6,594.7,511.9,594.9,511.1,594.9z M256.9,570.8c-1,0-2-0.3-2.8-1.1
		c-5.4-4.6-10.6-9.6-15.5-14.7c-1.6-1.7-1.6-4.5,0.1-6.1c1.7-1.6,4.5-1.6,6.1,0.1c4.7,4.9,9.7,9.7,14.9,14.2c1.8,1.6,2,4.3,0.4,6.1
		C259.3,570.3,258.1,570.8,256.9,570.8z M545.2,570.6c-1.2,0-2.4-0.5-3.3-1.5c-1.6-1.8-1.4-4.5,0.4-6.1c5.1-4.5,10.1-9.2,14.9-14.2
		c1.6-1.7,4.4-1.8,6.1-0.1c1.7,1.6,1.8,4.4,0.1,6.1c-4.9,5.1-10.1,10.1-15.5,14.7C547.2,570.2,546.2,570.6,545.2,570.6z M228,540.5
		c-1.3,0-2.5-0.6-3.4-1.6c-4.4-5.6-8.6-11.4-12.4-17.4c-1.3-2-0.7-4.7,1.3-6c2-1.3,4.7-0.7,6,1.3c3.7,5.7,7.7,11.4,11.9,16.7
		c1.5,1.9,1.2,4.6-0.7,6.1C229.9,540.2,228.9,540.5,228,540.5z M574.1,540.3c-0.9,0-1.9-0.3-2.7-0.9c-1.9-1.5-2.2-4.2-0.7-6.1
		c4.2-5.4,8.2-11,11.9-16.7c1.3-2,4-2.6,6-1.3c2,1.3,2.6,4,1.3,6c-3.8,6-8,11.8-12.4,17.4C576.6,539.7,575.3,540.3,574.1,540.3z
		 M205.3,505.3c-1.6,0-3.1-0.9-3.8-2.3c-3.3-6.3-6.3-12.8-8.9-19.4c-0.9-2.2,0.2-4.7,2.4-5.6c2.2-0.9,4.7,0.2,5.6,2.4
		c2.5,6.3,5.4,12.6,8.6,18.7c1.1,2.1,0.3,4.7-1.9,5.8C206.6,505.2,206,505.3,205.3,505.3z M596.7,505.1c-0.7,0-1.3-0.2-2-0.5
		c-2.1-1.1-3-3.7-1.9-5.8c3.1-6.1,6-12.3,8.5-18.7c0.9-2.2,3.4-3.3,5.6-2.4c2.2,0.9,3.3,3.4,2.4,5.6c-2.6,6.6-5.6,13.1-8.9,19.4
		C599.8,504.2,598.3,505.1,596.7,505.1z M189.7,466.5c-1.9,0-3.6-1.2-4.1-3.1c-2-6.8-3.7-13.8-5-20.8c-0.5-2.3,1.1-4.6,3.4-5.1
		c2.3-0.4,4.6,1.1,5.1,3.4c1.3,6.7,2.9,13.4,4.8,20c0.7,2.3-0.6,4.7-2.9,5.4C190.5,466.4,190.1,466.5,189.7,466.5z M612.3,466.2
		c-0.4,0-0.8-0.1-1.2-0.2c-2.3-0.7-3.6-3.1-2.9-5.4c1.9-6.5,3.5-13.3,4.8-20c0.5-2.3,2.7-3.9,5.1-3.4c2.3,0.4,3.9,2.7,3.4,5.1
		c-1.3,7-3,14-5,20.8C615.9,465,614.1,466.2,612.3,466.2z M181.8,425.4c-2.2,0-4.1-1.7-4.3-3.9c-0.7-7-1-14.2-1-21.3
		c0-2.4,1.9-4.3,4.3-4.3c0,0,0,0,0,0c2.4,0,4.3,1.9,4.3,4.3c0,6.8,0.3,13.7,1,20.5c0.2,2.4-1.5,4.5-3.9,4.7
		C182,425.4,181.9,425.4,181.8,425.4z M620.2,425.1c-0.1,0-0.3,0-0.4,0c-2.4-0.2-4.1-2.3-3.9-4.7c0.6-6.8,1-13.7,1-20.5v-0.5
		c0-2.4,1.9-4.3,4.3-4.3c2.4,0,4.3,1.9,4.3,4.3v0.5c0,7.1-0.3,14.3-1,21.3C624.2,423.5,622.4,425.1,620.2,425.1z M181.7,383.6
		c-0.1,0-0.3,0-0.4,0c-2.4-0.2-4.1-2.3-3.9-4.7c0.7-7.1,1.7-14.2,3-21.1c0.4-2.3,2.7-3.9,5.1-3.4c2.3,0.4,3.9,2.7,3.4,5.1
		c-1.3,6.7-2.2,13.5-2.9,20.3C185.8,381.9,183.9,383.6,181.7,383.6z M620.1,382.8c-2.2,0-4.1-1.7-4.3-3.9
		c-0.7-6.8-1.6-13.6-2.9-20.3c-0.5-2.3,1.1-4.6,3.4-5.1c2.3-0.5,4.6,1.1,5.1,3.4c1.3,7,2.4,14.1,3.1,21.1c0.2,2.4-1.5,4.5-3.9,4.7
		C620.4,382.8,620.2,382.8,620.1,382.8z M189.5,342.4c-0.4,0-0.8-0.1-1.2-0.2c-2.3-0.7-3.6-3.1-2.9-5.4c2-6.8,4.3-13.6,7-20.2
		c0.9-2.2,3.4-3.3,5.6-2.4c2.2,0.9,3.3,3.4,2.4,5.6c-2.5,6.3-4.8,12.9-6.7,19.4C193.1,341.2,191.4,342.4,189.5,342.4z M612.1,341.7
		c-1.9,0-3.6-1.2-4.1-3.1c-1.9-6.5-4.2-13.1-6.8-19.4c-0.9-2.2,0.2-4.7,2.4-5.6c2.2-0.9,4.7,0.2,5.6,2.4c2.7,6.6,5,13.4,7,20.2
		c0.7,2.3-0.6,4.7-2.9,5.4C612.9,341.7,612.5,341.7,612.1,341.7z M205.1,303.6c-0.7,0-1.3-0.2-2-0.5c-2.1-1.1-3-3.7-1.9-5.8
		c3.2-6.3,6.8-12.5,10.7-18.5c1.3-2,4-2.6,6-1.3c2,1.3,2.6,4,1.3,6c-3.7,5.7-7.1,11.7-10.3,17.8
		C208.1,302.7,206.6,303.6,205.1,303.6z M596.5,302.9c-1.6,0-3.1-0.8-3.8-2.3c-3.1-6-6.6-12-10.3-17.8c-1.3-2-0.7-4.7,1.3-6
		c2-1.3,4.7-0.7,6,1.3c3.9,6,7.5,12.2,10.7,18.5c1.1,2.1,0.3,4.7-1.8,5.8C597.8,302.8,597.2,302.9,596.5,302.9z M227.7,268.4
		c-0.9,0-1.9-0.3-2.7-0.9c-1.9-1.5-2.2-4.2-0.7-6.1c4.4-5.6,9.1-11,14-16.2c1.6-1.7,4.4-1.8,6.1-0.2c1.7,1.6,1.8,4.4,0.2,6.1
		c-4.7,4.9-9.2,10.2-13.4,15.5C230.2,267.8,228.9,268.4,227.7,268.4z M573.8,267.8c-1.3,0-2.5-0.6-3.4-1.6
		c-4.2-5.3-8.8-10.6-13.5-15.5c-1.7-1.7-1.6-4.5,0.1-6.1c1.7-1.6,4.5-1.6,6.1,0.1c4.9,5.1,9.6,10.5,14,16.1c1.5,1.9,1.2,4.6-0.7,6.1
		C575.6,267.5,574.7,267.8,573.8,267.8z M256.5,238c-1.2,0-2.4-0.5-3.3-1.5c-1.6-1.8-1.4-4.5,0.4-6.1c5.4-4.7,11-9.1,16.8-13.2
		c1.9-1.4,4.6-0.9,6,1c1.4,1.9,0.9,4.6-1,6c-5.5,4-11,8.3-16.1,12.7C258.5,237.7,257.5,238,256.5,238z M544.8,237.5
		c-1,0-2-0.3-2.8-1.1c-5.2-4.5-10.6-8.7-16.2-12.7c-1.9-1.4-2.4-4.1-1-6c1.4-1.9,4.1-2.4,6-1c5.8,4.1,11.4,8.5,16.8,13.2
		c1.8,1.6,2,4.3,0.4,6.1C547.2,237,546,237.5,544.8,237.5z M290.6,213.7c-1.5,0-2.9-0.8-3.7-2.2c-1.2-2.1-0.5-4.7,1.6-5.9
		c6.1-3.6,12.5-6.9,19-9.8c2.2-1,4.7,0,5.7,2.1c1,2.2,0,4.7-2.1,5.7c-6.2,2.8-12.3,6-18.2,9.5C292,213.5,291.3,213.7,290.6,213.7z
		 M510.7,213.3c-0.7,0-1.5-0.2-2.2-0.6c-5.9-3.4-12.1-6.6-18.3-9.4c-2.2-1-3.1-3.5-2.1-5.7c1-2.2,3.5-3.1,5.7-2.1
		c6.5,2.9,12.8,6.2,19,9.8c2.1,1.2,2.8,3.8,1.6,5.9C513.6,212.5,512.2,213.3,510.7,213.3z M328.6,196.2c-1.8,0-3.5-1.1-4.1-2.9
		c-0.8-2.3,0.4-4.7,2.7-5.5c6.7-2.3,13.6-4.4,20.5-6c2.3-0.6,4.7,0.9,5.2,3.2c0.6,2.3-0.9,4.7-3.2,5.2c-6.6,1.6-13.3,3.6-19.7,5.8
		C329.5,196.1,329.1,196.2,328.6,196.2z M472.6,196c-0.5,0-0.9-0.1-1.4-0.2c-6.5-2.2-13.1-4.1-19.7-5.7c-2.3-0.6-3.7-2.9-3.2-5.2
		c0.6-2.3,2.9-3.7,5.2-3.2c6.9,1.7,13.8,3.7,20.5,6c2.3,0.8,3.5,3.2,2.7,5.5C476.1,194.8,474.4,196,472.6,196z M369.2,186.3
		c-2.1,0-4-1.6-4.3-3.7c-0.3-2.4,1.3-4.6,3.7-4.9c7-1,14.2-1.7,21.3-2c2.4-0.1,4.4,1.7,4.5,4.1c0.1,2.4-1.7,4.4-4.1,4.5
		c-6.8,0.3-13.7,1-20.4,2C369.6,186.3,369.4,186.3,369.2,186.3z M431.9,186.2c-0.2,0-0.4,0-0.6,0c-6.7-0.9-13.6-1.6-20.5-1.9
		c-2.4-0.1-4.2-2.1-4.1-4.5c0.1-2.4,2.1-4.2,4.5-4.1c7.1,0.3,14.3,1,21.3,2c2.4,0.3,4,2.5,3.7,4.9
		C435.9,184.6,434,186.2,431.9,186.2z"/>
</g>
<g>
	<path class="st3" d="M68.3,37.2L70,35l-1.7-2.2l1.4-2.4l-2-1.9l1.1-2.6l-2.2-1.7l0.8-2.7l-2.4-1.3l0.4-2.8l-2.6-1l0.1-2.8L60.1,13
		l-0.3-2.8L57,9.9l-0.7-2.7l-2.8,0.1l-1-2.6l-2.8,0.4l-1.3-2.4l-2.7,0.8l-1.7-2.2l-2.6,1.1l-1.9-2l-2.4,1.4L35,0l-2.2,1.7l-2.4-1.4
		l-1.9,2l-2.6-1.1l-1.7,2.2l-2.7-0.8l-1.3,2.4l-2.8-0.4l-1,2.6l-2.8-0.1L13,9.9l-2.8,0.3L9.9,13l-2.7,0.7l0.1,2.8l-2.6,1l0.4,2.8
		l-2.4,1.3l0.8,2.7l-2.2,1.7l1.1,2.6l-2,1.9l1.4,2.4L0,35l1.7,2.2l-1.4,2.4l2,1.9l-1.1,2.6l2.2,1.7l-0.8,2.7l2.4,1.3l-0.4,2.8l2.6,1
		l-0.1,2.8L9.9,57l0.3,2.8l2.8,0.3l0.7,2.7l2.8-0.1l1,2.6l2.8-0.4l1.3,2.4l2.7-0.8l1.7,2.2l2.6-1.1l1.9,2l2.4-1.4L35,70l2.2-1.7
		l2.4,1.4l1.9-2l2.6,1.1l1.7-2.2l2.7,0.8l1.3-2.4l2.8,0.4l1-2.6l2.8,0.1l0.7-2.7l2.8-0.3l0.3-2.8l2.7-0.7l-0.1-2.8l2.6-1l-0.4-2.8
		l2.4-1.3l-0.8-2.7l2.2-1.7l-1.1-2.6l2-1.9L68.3,37.2z M35,65.7C18.1,65.7,4.4,51.9,4.4,35C4.4,18.1,18.1,4.4,35,4.4
		c16.9,0,30.6,13.7,30.6,30.6C65.6,51.9,51.9,65.7,35,65.7z"/>
	<path class="st4" d="M27.5,41.4h-0.4v2.2h0.4c0.2,0,0.3,0,0.4-0.1C28,43.4,28,43.2,28,43v-1.2c0-0.2,0-0.3-0.1-0.4
		C27.8,41.4,27.7,41.4,27.5,41.4z"/>
	<rect x="29.4" y="24.5" class="st4" width="1.9" height="7.7"/>
	<rect x="40.9" y="24.5" class="st4" width="1.9" height="2.9"/>
	<path class="st4" d="M35,5.3C18.6,5.3,5.3,18.6,5.3,35c0,16.4,13.3,29.7,29.7,29.7c16.4,0,29.7-13.3,29.7-29.7
		C64.7,18.6,51.4,5.3,35,5.3z M49.3,21.8h6.7V35h-4.4v-9.8h-2.3V21.8z M16.7,44.9c0,0.5,0,0.9-0.1,1.2c-0.1,0.3-0.1,0.5-0.3,0.6
		c-0.1,0.2-0.3,0.3-0.5,0.4c-0.2,0.1-0.6,0.1-1,0.1c-0.5,0-0.8,0-1-0.1c-0.2-0.1-0.4-0.2-0.5-0.4c-0.1-0.2-0.2-0.4-0.3-0.6
		C13,45.9,13,45.5,13,44.9v-4.7h1.5v5.3c0,0.2,0,0.3,0.1,0.4c0.1,0.1,0.2,0.1,0.3,0.1c0.2,0,0.3,0,0.3-0.1s0.1-0.2,0.1-0.4v-5.3h1.4
		V44.9z M21.2,45.6c0,0.6-0.1,1-0.4,1.3c-0.3,0.3-0.7,0.4-1.2,0.4h-0.4c-0.6,0-1.1-0.1-1.3-0.4c-0.2-0.2-0.4-0.7-0.4-1.3v-0.8h1.4
		v0.7c0,0.2,0,0.3,0.1,0.4C19,46,19.1,46,19.3,46c0.2,0,0.3,0,0.4-0.1c0.1-0.1,0.1-0.2,0.1-0.4V45c0-0.2,0-0.3,0-0.3
		c0-0.1,0-0.1-0.1-0.2c-0.1-0.1-0.3-0.2-0.7-0.3c-0.2,0-0.3-0.1-0.4-0.1c-0.4-0.1-0.7-0.3-0.9-0.5c-0.2-0.2-0.2-0.6-0.2-1.1v-0.6
		c0-0.6,0.1-1.1,0.3-1.3c0.2-0.2,0.6-0.4,1.2-0.4h0.4c0.3,0,0.6,0,0.9,0.1c0.2,0.1,0.4,0.2,0.5,0.3c0.1,0.1,0.2,0.2,0.2,0.4
		c0,0.2,0.1,0.4,0.1,0.8v0.5h-1.3v-0.4c0-0.2,0-0.4-0.1-0.4c-0.1-0.1-0.2-0.1-0.3-0.1c-0.2,0-0.3,0-0.3,0.1
		c-0.1,0.1-0.1,0.2-0.1,0.4v0.5c0,0.3,0.3,0.6,0.8,0.7c0.2,0,0.3,0.1,0.4,0.1c0.4,0.1,0.7,0.3,0.8,0.5c0.2,0.2,0.2,0.6,0.2,1.1V45.6
		z M20.6,24.5v7.7h1V35h-5.8v-2.8h1v-7.7h-1.3v2.2h-2.7v-5h11.7v5h-2.7v-2.2H20.6z M25,47.1H22v-7h2.8v1.3h-1.3v1.5h1.2v1.2h-1.2
		v1.7H25V47.1z M29.5,42.7c0,0.4-0.1,0.7-0.2,0.9c-0.2,0.2-0.4,0.4-0.8,0.4c0.3,0.1,0.6,0.2,0.8,0.4c0.2,0.2,0.2,0.5,0.2,0.8v1.8H28
		v-1.8c0-0.2,0-0.4-0.1-0.5c-0.1-0.1-0.2-0.1-0.5-0.1h-0.2v2.4h-1.5v-7h1.6c0.9,0,1.5,0.1,1.8,0.4c0.3,0.3,0.4,0.7,0.4,1.4V42.7z
		 M28.2,35c-0.8,0-1.4-0.2-1.9-0.7c-0.5-0.5-0.7-1.1-0.7-2v-7.9c0-0.8,0.2-1.5,0.7-1.9c0.5-0.5,1.1-0.7,1.9-0.7h4.3
		c0.8,0,1.4,0.2,1.9,0.7c0.5,0.5,0.7,1.1,0.7,1.9v7.9c0,0.8-0.2,1.5-0.7,1.9c-0.5,0.5-1.1,0.7-1.9,0.7H28.2z M36.1,42.5h-1.4v-0.7
		c0-0.2,0-0.3-0.1-0.4c0-0.1-0.1-0.1-0.3-0.1c-0.1,0-0.2,0-0.3,0.1c0,0.1-0.1,0.2-0.1,0.4v3.7c0,0.2,0,0.3,0.1,0.4
		c0,0.1,0.1,0.1,0.3,0.1c0.1,0,0.2,0,0.3-0.1c0-0.1,0.1-0.2,0.1-0.4v-1h1.4v0.7c0,0.5,0,0.8-0.1,1c0,0.2-0.1,0.4-0.2,0.5
		c-0.1,0.2-0.3,0.3-0.4,0.3c-0.2,0.1-0.5,0.1-1,0.1c-0.5,0-0.9,0-1.1-0.1c-0.2-0.1-0.4-0.2-0.5-0.3c-0.1-0.1-0.2-0.3-0.3-0.5
		c-0.1-0.2-0.1-0.6-0.1-1V42c0-0.5,0-0.8,0.1-1c0.1-0.2,0.1-0.4,0.3-0.5c0.1-0.2,0.3-0.3,0.5-0.3s0.6-0.1,1.1-0.1
		c0.4,0,0.7,0,0.9,0.1c0.2,0.1,0.3,0.2,0.5,0.3c0.1,0.1,0.2,0.3,0.2,0.5c0,0.2,0.1,0.6,0.1,1V42.5z M40.7,47.1h-1.5v-3h-0.8v3h-1.5
		v-7h1.5v2.7h0.8v-2.7h1.5V47.1z M45.4,45.3c0,0.5,0,0.8-0.1,1c0,0.2-0.1,0.4-0.3,0.5c-0.1,0.2-0.3,0.3-0.5,0.3
		c-0.2,0.1-0.6,0.1-1.1,0.1c-0.5,0-0.9,0-1.1-0.1c-0.2-0.1-0.4-0.2-0.5-0.3c-0.1-0.1-0.2-0.3-0.3-0.5c-0.1-0.2-0.1-0.6-0.1-1V42
		c0-0.5,0-0.8,0.1-1c0.1-0.2,0.1-0.4,0.3-0.5c0.1-0.2,0.3-0.3,0.5-0.3s0.6-0.1,1.1-0.1c0.5,0,0.9,0,1.1,0.1s0.4,0.2,0.5,0.3
		c0.1,0.1,0.2,0.3,0.3,0.5c0.1,0.2,0.1,0.5,0.1,1V45.3z M44,29.8h-3.1v2.5H42V35h-5.9v-2.8h1.1v-7.7h-1.1v-2.8H44
		c0.8,0,1.4,0.2,1.9,0.7c0.4,0.5,0.7,1.2,0.7,2.1v2.5c0,0.8-0.2,1.5-0.7,2C45.3,29.5,44.7,29.8,44,29.8z M47.8,47.1h-1.5v-7h1.5
		V47.1z M52.3,42.5H51v-0.7c0-0.2,0-0.3-0.1-0.4c0-0.1-0.1-0.1-0.3-0.1c-0.1,0-0.2,0-0.3,0.1c0,0.1-0.1,0.2-0.1,0.4v3.7
		c0,0.2,0,0.3,0.1,0.4c0,0.1,0.1,0.1,0.3,0.1c0.1,0,0.2,0,0.3-0.1c0-0.1,0.1-0.2,0.1-0.4v-1h1.4v0.7c0,0.5,0,0.8-0.1,1
		c0,0.2-0.1,0.4-0.2,0.5c-0.1,0.2-0.3,0.3-0.4,0.3c-0.2,0.1-0.5,0.1-1,0.1c-0.5,0-0.9,0-1.1-0.1c-0.2-0.1-0.4-0.2-0.5-0.3
		c-0.1-0.1-0.2-0.3-0.3-0.5c-0.1-0.2-0.1-0.6-0.1-1V42c0-0.5,0-0.8,0.1-1c0.1-0.2,0.1-0.4,0.3-0.5c0.1-0.2,0.3-0.3,0.5-0.3
		c0.2-0.1,0.6-0.1,1.1-0.1c0.4,0,0.7,0,0.9,0.1c0.2,0.1,0.3,0.2,0.5,0.3c0.1,0.1,0.2,0.3,0.2,0.5c0,0.2,0.1,0.6,0.1,1V42.5z
		 M56,47.1h-2.9v-7h2.8v1.3h-1.3v1.5h1.2v1.2h-1.2v1.7H56V47.1z"/>
	<path class="st4" d="M43.4,41.7c-0.1,0-0.2,0-0.3,0.1c0,0.1-0.1,0.2-0.1,0.3v3c0,0.2,0,0.3,0.1,0.3c0,0.1,0.1,0.1,0.3,0.1
		c0.1,0,0.2,0,0.3-0.1c0-0.1,0.1-0.2,0.1-0.3v-3c0-0.2,0-0.3-0.1-0.3C43.6,41.8,43.5,41.7,43.4,41.7z"/>
	<path class="st5" d="M35,4.4C18.1,4.4,4.4,18.1,4.4,35c0,16.9,13.7,30.6,30.6,30.6c16.9,0,30.6-13.7,30.6-30.6
		C65.6,18.1,51.9,4.4,35,4.4z M35,64.7C18.6,64.7,5.3,51.4,5.3,35C5.3,18.6,18.6,5.3,35,5.3c16.4,0,29.7,13.3,29.7,29.7
		C64.7,51.4,51.4,64.7,35,64.7z"/>
	<polygon class="st5" points="24.6,26.7 24.6,21.8 12.9,21.8 12.9,26.7 15.6,26.7 15.6,24.5 16.9,24.5 16.9,32.2 15.9,32.2 15.9,35 
		21.7,35 21.7,32.2 20.6,32.2 20.6,24.5 21.9,24.5 21.9,26.7 	"/>
	<path class="st5" d="M35.1,32.4v-7.9c0-0.8-0.2-1.5-0.7-1.9c-0.5-0.5-1.1-0.7-1.9-0.7h-4.3c-0.8,0-1.4,0.2-1.9,0.7
		c-0.5,0.5-0.7,1.1-0.7,1.9v7.9c0,0.8,0.2,1.5,0.7,2c0.5,0.5,1.1,0.7,1.9,0.7h4.3c0.8,0,1.4-0.2,1.9-0.7
		C34.8,33.8,35.1,33.2,35.1,32.4z M31.3,32.2h-1.9v-7.7h1.9V32.2z"/>
	<path class="st5" d="M46.5,24.6c0-0.9-0.2-1.6-0.7-2.1c-0.4-0.5-1.1-0.7-1.9-0.7h-7.9v2.8h1.1v7.7h-1.1V35H42v-2.8h-1.1v-2.5H44
		c0.8,0,1.4-0.2,1.9-0.7c0.5-0.5,0.7-1.1,0.7-2V24.6z M42.8,27.4h-1.9v-2.9h1.9V27.4z"/>
	<polygon class="st5" points="51.6,35 55.9,35 55.9,21.8 49.3,21.8 49.3,25.2 51.6,25.2 	"/>
	<path class="st5" d="M15.3,45.5c0,0.2,0,0.3-0.1,0.4S15,46,14.9,46c-0.2,0-0.3,0-0.3-0.1c-0.1-0.1-0.1-0.2-0.1-0.4v-5.3H13v4.7
		c0,0.6,0,1,0.1,1.2c0.1,0.2,0.1,0.5,0.3,0.6c0.1,0.2,0.3,0.3,0.5,0.4c0.2,0.1,0.6,0.1,1,0.1c0.4,0,0.8,0,1-0.1
		c0.2-0.1,0.4-0.2,0.5-0.4c0.1-0.2,0.2-0.4,0.3-0.6c0.1-0.3,0.1-0.7,0.1-1.2v-4.7h-1.4V45.5z"/>
	<path class="st5" d="M20.1,43c-0.1,0-0.2-0.1-0.4-0.1c-0.5-0.1-0.8-0.4-0.8-0.7v-0.5c0-0.2,0-0.3,0.1-0.4c0.1-0.1,0.2-0.1,0.3-0.1
		c0.2,0,0.3,0,0.3,0.1c0.1,0.1,0.1,0.2,0.1,0.4v0.4h1.3v-0.5c0-0.4,0-0.6-0.1-0.8c0-0.2-0.1-0.3-0.2-0.4c-0.1-0.1-0.3-0.2-0.5-0.3
		c-0.2-0.1-0.5-0.1-0.9-0.1H19c-0.6,0-0.9,0.1-1.2,0.4c-0.2,0.2-0.3,0.7-0.3,1.3v0.6c0,0.5,0.1,0.9,0.2,1.1c0.2,0.2,0.4,0.4,0.9,0.5
		c0.1,0,0.2,0.1,0.4,0.1c0.4,0.1,0.6,0.2,0.7,0.3c0,0.1,0.1,0.1,0.1,0.2c0,0.1,0,0.2,0,0.3v0.5c0,0.2,0,0.3-0.1,0.4
		C19.6,46,19.5,46,19.3,46c-0.2,0-0.3,0-0.3-0.1c-0.1-0.1-0.1-0.2-0.1-0.4v-0.7h-1.4v0.8c0,0.6,0.1,1.1,0.4,1.3
		c0.2,0.2,0.7,0.4,1.3,0.4h0.4c0.6,0,1-0.1,1.2-0.4c0.3-0.3,0.4-0.7,0.4-1.3v-0.9c0-0.5-0.1-0.8-0.2-1.1
		C20.8,43.3,20.5,43.2,20.1,43z"/>
	<polygon class="st5" points="23.5,44.2 24.7,44.2 24.7,42.9 23.5,42.9 23.5,41.4 24.8,41.4 24.8,40.1 22,40.1 22,47.1 25,47.1 
		25,45.9 23.5,45.9 	"/>
	<path class="st5" d="M27.2,40.1h-1.6v7h1.5v-2.4h0.2c0.2,0,0.4,0,0.5,0.1C28,45,28,45.1,28,45.4v1.8h1.5v-1.8
		c0-0.4-0.1-0.6-0.2-0.8c-0.2-0.2-0.4-0.3-0.8-0.4c0.4-0.1,0.6-0.2,0.8-0.4c0.2-0.2,0.2-0.5,0.2-0.9v-0.8c0-0.7-0.1-1.2-0.4-1.4
		C28.8,40.3,28.1,40.1,27.2,40.1z M28,43c0,0.2,0,0.3-0.1,0.4c-0.1,0.1-0.2,0.1-0.4,0.1h-0.4v-2.2h0.4c0.2,0,0.3,0,0.4,0.1
		c0.1,0.1,0.1,0.2,0.1,0.4V43z"/>
	<path class="st5" d="M35.8,40.5c-0.1-0.2-0.3-0.3-0.5-0.3c-0.2-0.1-0.5-0.1-0.9-0.1c-0.5,0-0.9,0-1.1,0.1s-0.4,0.2-0.5,0.3
		c-0.1,0.1-0.2,0.3-0.3,0.5c-0.1,0.2-0.1,0.5-0.1,1v3.2c0,0.5,0,0.8,0.1,1c0.1,0.2,0.1,0.4,0.3,0.5c0.1,0.2,0.3,0.3,0.5,0.3
		c0.2,0.1,0.6,0.1,1.1,0.1c0.5,0,0.8,0,1-0.1c0.2-0.1,0.3-0.2,0.4-0.3c0.1-0.1,0.2-0.3,0.2-0.5c0-0.2,0.1-0.5,0.1-1v-0.7h-1.4v1
		c0,0.2,0,0.3-0.1,0.4c0,0.1-0.1,0.1-0.3,0.1c-0.1,0-0.2,0-0.3-0.1c0-0.1-0.1-0.2-0.1-0.4v-3.7c0-0.2,0-0.3,0.1-0.4
		c0-0.1,0.1-0.1,0.3-0.1c0.1,0,0.2,0,0.3,0.1c0,0.1,0.1,0.2,0.1,0.4v0.7h1.4V42c0-0.5,0-0.8-0.1-1C36,40.8,36,40.6,35.8,40.5z"/>
	<polygon class="st5" points="39.2,42.8 38.4,42.8 38.4,40.1 36.9,40.1 36.9,47.1 38.4,47.1 38.4,44.1 39.2,44.1 39.2,47.1 
		40.7,47.1 40.7,40.1 39.2,40.1 	"/>
	<path class="st5" d="M45.1,40.5c-0.1-0.2-0.3-0.3-0.5-0.3s-0.6-0.1-1.1-0.1c-0.5,0-0.9,0-1.1,0.1s-0.4,0.2-0.5,0.3
		c-0.1,0.1-0.2,0.3-0.3,0.5c-0.1,0.2-0.1,0.5-0.1,1v3.2c0,0.5,0,0.8,0.1,1c0.1,0.2,0.1,0.4,0.3,0.5c0.1,0.2,0.3,0.3,0.5,0.3
		c0.2,0.1,0.6,0.1,1.1,0.1c0.5,0,0.9,0,1.1-0.1c0.2-0.1,0.4-0.2,0.5-0.3c0.1-0.1,0.2-0.3,0.3-0.5c0-0.2,0.1-0.5,0.1-1V42
		c0-0.5,0-0.8-0.1-1C45.3,40.8,45.2,40.6,45.1,40.5z M43.7,45.2c0,0.2,0,0.3-0.1,0.3c0,0.1-0.1,0.1-0.3,0.1c-0.1,0-0.2,0-0.3-0.1
		c0-0.1-0.1-0.2-0.1-0.3v-3c0-0.2,0-0.3,0.1-0.3c0-0.1,0.1-0.1,0.3-0.1c0.1,0,0.2,0,0.3,0.1c0,0.1,0.1,0.2,0.1,0.3V45.2z"/>
	<rect x="46.3" y="40.1" class="st5" width="1.5" height="7"/>
	<path class="st5" d="M52,40.5c-0.1-0.2-0.3-0.3-0.5-0.3c-0.2-0.1-0.5-0.1-0.9-0.1c-0.5,0-0.9,0-1.1,0.1c-0.2,0.1-0.4,0.2-0.5,0.3
		c-0.1,0.1-0.2,0.3-0.3,0.5c-0.1,0.2-0.1,0.5-0.1,1v3.2c0,0.5,0,0.8,0.1,1c0.1,0.2,0.1,0.4,0.3,0.5c0.1,0.2,0.3,0.3,0.5,0.3
		c0.2,0.1,0.6,0.1,1.1,0.1c0.5,0,0.8,0,1-0.1c0.2-0.1,0.3-0.2,0.4-0.3c0.1-0.1,0.2-0.3,0.2-0.5c0-0.2,0.1-0.5,0.1-1v-0.7H51v1
		c0,0.2,0,0.3-0.1,0.4c0,0.1-0.1,0.1-0.3,0.1c-0.1,0-0.2,0-0.3-0.1c0-0.1-0.1-0.2-0.1-0.4v-3.7c0-0.2,0-0.3,0.1-0.4
		c0-0.1,0.1-0.1,0.3-0.1c0.1,0,0.2,0,0.3,0.1c0,0.1,0.1,0.2,0.1,0.4v0.7h1.4V42c0-0.5,0-0.8-0.1-1C52.2,40.8,52.1,40.6,52,40.5z"/>
	<polygon class="st5" points="54.6,44.2 55.8,44.2 55.8,42.9 54.6,42.9 54.6,41.4 55.9,41.4 55.9,40.1 53.1,40.1 53.1,47.1 56,47.1 
		56,45.9 54.6,45.9 	"/>
</g>
</svg>
